<svg data-v-fde0c5aa="" xmlns="http://www.w3.org/2000/svg" viewBox="0 0 300 300" class="iconLeft"><!----><defs data-v-fde0c5aa=""><!----></defs><rect data-v-fde0c5aa="" fill="#FBF3EF" x="0" y="0" width="300px" height="300px" class="logo-background-square"></rect><defs data-v-fde0c5aa=""><!----></defs><g data-v-fde0c5aa="" id="2cf63c84-32a5-46f5-b4f3-a728882a9308" fill="#2F190E" transform="matrix(2.7035468266490112,0,0,2.7035468266490112,101.97768994832148,118.35498331118599)"><path d="M6.19 15.31L6.32 16.51L6.32 16.51Q6.06 16.71 5.81 16.85L5.81 16.85L5.81 16.85Q5.55 16.99 5.27 17.08L5.27 17.08L5.27 17.08Q4.99 17.17 4.67 17.22L4.67 17.22L4.67 17.22Q4.35 17.26 3.96 17.26L3.96 17.26L3.96 17.26Q3.27 17.26 2.67 17.02L2.67 17.02L2.67 17.02Q2.07 16.78 1.62 16.32L1.62 16.32L1.62 16.32Q1.17 15.86 0.91 15.21L0.91 15.21L0.91 15.21Q0.65 14.56 0.65 13.74L0.65 13.74L0.65 13.74Q0.65 12.97 0.90 12.28L0.90 12.28L0.90 12.28Q1.15 11.60 1.61 11.09L1.61 11.09L1.61 11.09Q2.07 10.58 2.73 10.28L2.73 10.28L2.73 10.28Q3.39 9.98 4.20 9.98L4.20 9.98L4.20 9.98Q4.89 9.98 5.38 10.14L5.38 10.14L5.38 10.14Q5.88 10.30 6.25 10.56L6.25 10.56L6.02 11.79L6.02 11.79Q5.55 11.45 5.09 11.28L5.09 11.28L5.09 11.28Q4.63 11.11 4.10 11.11L4.10 11.11L4.10 11.11Q3.64 11.11 3.25 11.28L3.25 11.28L3.25 11.28Q2.86 11.46 2.57 11.79L2.57 11.79L2.57 11.79Q2.28 12.11 2.11 12.59L2.11 12.59L2.11 12.59Q1.95 13.07 1.95 13.67L1.95 13.67L1.95 13.67Q1.95 14.23 2.10 14.68L2.10 14.68L2.10 14.68Q2.25 15.13 2.53 15.45L2.53 15.45L2.53 15.45Q2.81 15.78 3.21 15.96L3.21 15.96L3.21 15.96Q3.60 16.13 4.10 16.13L4.10 16.13L4.10 16.13Q4.72 16.13 5.23 15.92L5.23 15.92L5.23 15.92Q5.74 15.71 6.19 15.31L6.19 15.31ZM9.54 6.15L9.54 13.84L9.54 13.84Q9.54 14.17 9.55 14.62L9.55 14.62L9.55 14.62Q9.56 15.06 9.57 15.52L9.57 15.52L9.57 15.52Q9.59 15.98 9.61 16.39L9.61 16.39L9.61 16.39Q9.64 16.81 9.67 17.09L9.67 17.09L8.27 17.09L8.27 9.37L8.27 9.37Q8.27 8.37 8.24 7.56L8.24 7.56L8.24 7.56Q8.20 6.75 8.13 6.15L8.13 6.15L9.54 6.15ZM12.75 13.64L12.75 13.64L12.75 13.64Q12.75 14.23 12.89 14.70L12.89 14.70L12.89 14.70Q13.04 15.18 13.30 15.50L13.30 15.50L13.30 15.50Q13.56 15.83 13.92 16.00L13.92 16.00L13.92 16.00Q14.29 16.17 14.73 16.17L14.73 16.17L14.73 16.17Q15.14 16.17 15.50 16.00L15.50 16.00L15.50 16.00Q15.87 15.83 16.14 15.50L16.14 15.50L16.14 15.50Q16.41 15.18 16.56 14.70L16.56 14.70L16.56 14.70Q16.71 14.23 16.71 13.64L16.71 13.64L16.71 13.64Q16.71 13.04 16.57 12.56L16.57 12.56L16.57 12.56Q16.43 12.09 16.16 11.75L16.16 11.75L16.16 11.75Q15.90 11.42 15.53 11.25L15.53 11.25L15.53 11.25Q15.17 11.07 14.73 11.07L14.73 11.07L14.73 11.07Q14.31 11.07 13.95 11.25L13.95 11.25L13.95 11.25Q13.59 11.42 13.32 11.75L13.32 11.75L13.32 11.75Q13.06 12.09 12.90 12.56L12.90 12.56L12.90 12.56Q12.75 13.04 12.75 13.64ZM11.48 13.64L11.48 13.64L11.48 13.64Q11.48 12.76 11.75 12.08L11.75 12.08L11.75 12.08Q12.02 11.40 12.47 10.93L12.47 10.93L12.47 10.93Q12.92 10.46 13.52 10.22L13.52 10.22L13.52 10.22Q14.12 9.98 14.80 9.98L14.80 9.98L14.80 9.98Q15.50 9.98 16.09 10.22L16.09 10.22L16.09 10.22Q16.67 10.46 17.09 10.93L17.09 10.93L17.09 10.93Q17.51 11.40 17.75 12.08L17.75 12.08L17.75 12.08Q17.98 12.76 17.98 13.64L17.98 13.64L17.98 13.64Q17.98 14.52 17.71 15.20L17.71 15.20L17.71 15.20Q17.45 15.87 16.99 16.33L16.99 16.33L16.99 16.33Q16.54 16.79 15.94 17.02L15.94 17.02L15.94 17.02Q15.34 17.26 14.66 17.26L14.66 17.26L14.66 17.26Q13.96 17.26 13.37 17.02L13.37 17.02L13.37 17.02Q12.79 16.79 12.37 16.33L12.37 16.33L12.37 16.33Q11.95 15.87 11.72 15.20L11.72 15.20L11.72 15.20Q11.48 14.52 11.48 13.64ZM26.08 17.09L24.92 17.09L24.92 17.09Q24.87 16.97 24.81 16.82L24.81 16.82L24.81 16.82Q24.76 16.66 24.71 16.48L24.71 16.48L24.71 16.48Q24.66 16.30 24.61 16.11L24.61 16.11L24.61 16.11Q24.57 15.91 24.54 15.72L24.54 15.72L24.54 15.72Q23.92 16.48 23.26 16.87L23.26 16.87L23.26 16.87Q22.60 17.26 21.88 17.26L21.88 17.26L21.88 17.26Q19.69 17.26 19.69 14.32L19.69 14.32L19.69 12.30L19.69 12.30Q19.69 11.98 19.68 11.71L19.68 11.71L19.68 11.71Q19.68 11.44 19.67 11.19L19.67 11.19L19.67 11.19Q19.65 10.94 19.63 10.68L19.63 10.68L19.63 10.68Q19.60 10.42 19.55 10.12L19.55 10.12L20.95 10.12L20.95 13.91L20.95 13.91Q20.95 14.49 21.01 14.91L21.01 14.91L21.01 14.91Q21.07 15.33 21.21 15.60L21.21 15.60L21.21 15.60Q21.34 15.87 21.56 16.00L21.56 16.00L21.56 16.00Q21.79 16.13 22.11 16.13L22.11 16.13L22.11 16.13Q22.42 16.13 22.76 15.95L22.76 15.95L22.76 15.95Q23.10 15.77 23.41 15.49L23.41 15.49L23.41 15.49Q23.72 15.21 23.98 14.87L23.98 14.87L23.98 14.87Q24.23 14.53 24.37 14.22L24.37 14.22L24.37 12.30L24.37 12.30Q24.37 11.97 24.37 11.70L24.37 11.70L24.37 11.70Q24.36 11.43 24.35 11.18L24.35 11.18L24.35 11.18Q24.34 10.94 24.31 10.68L24.31 10.68L24.31 10.68Q24.28 10.43 24.23 10.12L24.23 10.12L25.63 10.12L25.63 14.01L25.63 14.01Q25.63 15.01 25.75 15.76L25.75 15.76L25.75 15.76Q25.86 16.51 26.08 17.09L26.08 17.09ZM32.50 14.36L32.50 11.66L32.50 11.66Q32.25 11.52 32.03 11.42L32.03 11.42L32.03 11.42Q31.81 11.33 31.60 11.27L31.60 11.27L31.60 11.27Q31.39 11.20 31.17 11.17L31.17 11.17L31.17 11.17Q30.95 11.14 30.69 11.14L30.69 11.14L30.69 11.14Q30.30 11.14 29.95 11.32L29.95 11.32L29.95 11.32Q29.59 11.50 29.32 11.83L29.32 11.83L29.32 11.83Q29.04 12.17 28.88 12.65L28.88 12.65L28.88 12.65Q28.71 13.13 28.71 13.74L28.71 13.74L28.71 13.74Q28.71 14.94 29.12 15.55L29.12 15.55L29.12 15.55Q29.52 16.17 30.42 16.17L30.42 16.17L30.42 16.17Q30.73 16.17 31.05 16.01L31.05 16.01L31.05 16.01Q31.36 15.85 31.63 15.60L31.63 15.60L31.63 15.60Q31.91 15.35 32.14 15.02L32.14 15.02L32.14 15.02Q32.36 14.70 32.50 14.36L32.50 14.36ZM33.77 6.15L33.77 13.47L33.77 13.47Q33.77 14.76 33.92 15.64L33.92 15.64L33.92 15.64Q34.06 16.52 34.28 17.09L34.28 17.09L33.05 17.09L33.05 17.09Q32.98 16.91 32.87 16.56L32.87 16.56L32.87 16.56Q32.76 16.21 32.68 15.83L32.68 15.83L32.68 15.83Q32.18 16.52 31.56 16.89L31.56 16.89L31.56 16.89Q30.94 17.26 30.18 17.26L30.18 17.26L30.18 17.26Q29.55 17.26 29.05 17.02L29.05 17.02L29.05 17.02Q28.55 16.79 28.19 16.35L28.19 16.35L28.19 16.35Q27.83 15.92 27.64 15.31L27.64 15.31L27.64 15.31Q27.45 14.70 27.45 13.95L27.45 13.95L27.45 13.95Q27.45 13.04 27.70 12.30L27.70 12.30L27.70 12.30Q27.95 11.57 28.38 11.06L28.38 11.06L28.38 11.06Q28.82 10.54 29.41 10.26L29.41 10.26L29.41 10.26Q30.00 9.98 30.69 9.98L30.69 9.98L30.69 9.98Q30.91 9.98 31.15 10.03L31.15 10.03L31.15 10.03Q31.38 10.08 31.62 10.16L31.62 10.16L31.62 10.16Q31.86 10.24 32.08 10.35L32.08 10.35L32.08 10.35Q32.31 10.45 32.50 10.56L32.50 10.56L32.50 8.65L32.50 8.65Q32.50 7.82 32.47 7.20L32.47 7.20L32.47 7.20Q32.43 6.58 32.33 6.15L32.33 6.15L33.77 6.15ZM39.96 8.68L36.66 13.33L39.96 13.33L39.96 8.68ZM42.55 14.39L41.25 14.39L41.25 17.09L39.96 17.09L39.96 14.39L35.48 14.39L35.48 13.33L39.96 6.97L41.25 6.97L41.25 13.33L42.55 13.33L42.55 14.39ZM44.33 16.34L44.33 16.34L44.33 16.34Q44.33 16.15 44.40 15.98L44.40 15.98L44.40 15.98Q44.47 15.81 44.60 15.69L44.60 15.69L44.60 15.69Q44.73 15.56 44.90 15.49L44.90 15.49L44.90 15.49Q45.06 15.42 45.25 15.42L45.25 15.42L45.25 15.42Q45.45 15.42 45.61 15.49L45.61 15.49L45.61 15.49Q45.78 15.56 45.91 15.69L45.91 15.69L45.91 15.69Q46.03 15.81 46.10 15.98L46.10 15.98L46.10 15.98Q46.18 16.15 46.18 16.34L46.18 16.34L46.18 16.34Q46.18 16.53 46.10 16.70L46.10 16.70L46.10 16.70Q46.03 16.86 45.91 16.99L45.91 16.99L45.91 16.99Q45.78 17.12 45.61 17.19L45.61 17.19L45.61 17.19Q45.45 17.26 45.25 17.26L45.25 17.26L45.25 17.26Q45.06 17.26 44.90 17.19L44.90 17.19L44.90 17.19Q44.73 17.12 44.60 16.99L44.60 16.99L44.60 16.99Q44.47 16.86 44.40 16.70L44.40 16.70L44.40 16.70Q44.33 16.53 44.33 16.34ZM48.50 7.90L48.50 7.90L48.50 7.90Q48.50 7.70 48.56 7.54L48.56 7.54L48.56 7.54Q48.62 7.37 48.74 7.24L48.74 7.24L48.74 7.24Q48.85 7.12 49.01 7.04L49.01 7.04L49.01 7.04Q49.16 6.97 49.36 6.97L49.36 6.97L49.36 6.97Q49.55 6.97 49.71 7.04L49.71 7.04L49.71 7.04Q49.88 7.12 49.99 7.24L49.99 7.24L49.99 7.24Q50.11 7.37 50.18 7.54L50.18 7.54L50.18 7.54Q50.24 7.70 50.24 7.90L50.24 7.90L50.24 7.90Q50.24 8.09 50.18 8.25L50.18 8.25L50.18 8.25Q50.11 8.42 49.99 8.55L49.99 8.55L49.99 8.55Q49.88 8.67 49.71 8.75L49.71 8.75L49.71 8.75Q49.55 8.82 49.36 8.82L49.36 8.82L49.36 8.82Q49.16 8.82 49.01 8.75L49.01 8.75L49.01 8.75Q48.85 8.67 48.74 8.55L48.74 8.55L48.74 8.55Q48.62 8.42 48.56 8.25L48.56 8.25L48.56 8.25Q48.50 8.09 48.50 7.90ZM50.00 10.12L50.00 13.84L50.00 13.84Q50.00 14.17 50.02 14.62L50.02 14.62L50.02 14.62Q50.03 15.07 50.04 15.52L50.04 15.52L50.04 15.52Q50.06 15.98 50.08 16.40L50.08 16.40L50.08 16.40Q50.11 16.82 50.14 17.09L50.14 17.09L48.74 17.09L48.74 13.47L48.74 13.47Q48.74 12.97 48.74 12.48L48.74 12.48L48.74 12.48Q48.73 12.00 48.72 11.56L48.72 11.56L48.72 11.56Q48.71 11.13 48.69 10.76L48.69 10.76L48.69 10.76Q48.67 10.38 48.64 10.12L48.64 10.12L50.00 10.12ZM53.22 13.64L53.22 13.64L53.22 13.64Q53.22 14.23 53.36 14.70L53.36 14.70L53.36 14.70Q53.50 15.18 53.77 15.50L53.77 15.50L53.77 15.50Q54.03 15.83 54.39 16.00L54.39 16.00L54.39 16.00Q54.76 16.17 55.20 16.17L55.20 16.17L55.20 16.17Q55.61 16.17 55.97 16.00L55.97 16.00L55.97 16.00Q56.33 15.83 56.60 15.50L56.60 15.50L56.60 15.50Q56.88 15.18 57.03 14.70L57.03 14.70L57.03 14.70Q57.18 14.23 57.18 13.64L57.18 13.64L57.18 13.64Q57.18 13.04 57.04 12.56L57.04 12.56L57.04 12.56Q56.90 12.09 56.63 11.75L56.63 11.75L56.63 11.75Q56.37 11.42 56.00 11.25L56.00 11.25L56.00 11.25Q55.64 11.07 55.20 11.07L55.20 11.07L55.20 11.07Q54.78 11.07 54.42 11.25L54.42 11.25L54.42 11.25Q54.06 11.42 53.79 11.75L53.79 11.75L53.79 11.75Q53.53 12.09 53.37 12.56L53.37 12.56L53.37 12.56Q53.22 13.04 53.22 13.64ZM51.95 13.64L51.95 13.64L51.95 13.64Q51.95 12.76 52.22 12.08L52.22 12.08L52.22 12.08Q52.49 11.40 52.94 10.93L52.94 10.93L52.94 10.93Q53.39 10.46 53.99 10.22L53.99 10.22L53.99 10.22Q54.59 9.98 55.27 9.98L55.27 9.98L55.27 9.98Q55.97 9.98 56.56 10.22L56.56 10.22L56.56 10.22Q57.14 10.46 57.56 10.93L57.56 10.93L57.56 10.93Q57.98 11.40 58.21 12.08L58.21 12.08L58.21 12.08Q58.45 12.76 58.45 13.64L58.45 13.64L58.45 13.64Q58.45 14.52 58.18 15.20L58.18 15.20L58.18 15.20Q57.91 15.87 57.46 16.33L57.46 16.33L57.46 16.33Q57.01 16.79 56.41 17.02L56.41 17.02L56.41 17.02Q55.81 17.26 55.13 17.26L55.13 17.26L55.13 17.26Q54.43 17.26 53.84 17.02L53.84 17.02L53.84 17.02Q53.26 16.79 52.84 16.33L52.84 16.33L52.84 16.33Q52.42 15.87 52.19 15.20L52.19 15.20L52.19 15.20Q51.95 14.52 51.95 13.64Z"></path></g><defs data-v-fde0c5aa=""><linearGradient data-v-fde0c5aa="" gradientTransform="rotate(25)" id="170cb222-ca18-404c-aa5e-1ec149d6675a" x1="0%" y1="0%" x2="100%" y2="0%"><stop data-v-fde0c5aa="" offset="0%" stop-color="#A92580" stop-opacity="1"></stop><stop data-v-fde0c5aa="" offset="100%" stop-color="#F7BC00" stop-opacity="1"></stop></linearGradient></defs><g data-v-fde0c5aa="" id="7fc2f8a4-3b5e-4a8b-a678-6e01a440dc2d" stroke="none" fill="url(#170cb222-ca18-404c-aa5e-1ec149d6675a)" transform="matrix(0.5073550255865685,0,0,0.5073550255865685,40,127.42953182815748)"><path d="M96.295 48.146h-7.408a3.702 3.702 0 0 1 0-7.404h7.408a3.704 3.704 0 0 1 3.704 3.701 3.703 3.703 0 0 1-3.704 3.703zM81.744 23.492a3.705 3.705 0 0 1-5.238 0 3.7 3.7 0 0 1 0-5.236l5.238-5.238a3.703 3.703 0 1 1 5.237 5.238l-5.237 5.236zM76.285 52.396a22.26 22.26 0 0 0 1.494-7.953c0-12.27-9.951-22.222-22.226-22.222-7.142 0-13.481 3.384-17.547 8.619a29.628 29.628 0 0 0-8.377-1.21C13.266 29.63 0 42.895 0 59.258c0 16.365 13.266 29.63 29.629 29.63h29.628c12.274 0 22.226-9.951 22.226-22.222a22.123 22.123 0 0 0-5.198-14.27zM55.553 29.63c8.183 0 14.817 6.634 14.817 14.813 0 .969-.102 1.912-.279 2.828a22.12 22.12 0 0 0-10.834-2.828c-1.289 0-2.535.17-3.766.38A29.833 29.833 0 0 0 45.067 33.98a14.765 14.765 0 0 1 10.486-4.35zm3.704 51.85h-29.63c-12.273 0-22.221-9.948-22.221-22.222s9.948-22.22 22.221-22.22c10.541 0 19.325 7.358 21.604 17.204 2.315-1.498 5.062-2.392 8.026-2.392 8.183 0 14.813 6.635 14.813 14.816.001 8.18-6.63 14.814-14.813 14.814zM55.553 14.813a3.704 3.704 0 0 1-3.704-3.702V3.704a3.705 3.705 0 0 1 7.408 0v7.407a3.7 3.7 0 0 1-3.704 3.702zM29.365 23.492l-5.236-5.236a3.703 3.703 0 1 1 5.236-5.238l5.237 5.238a3.703 3.703 0 0 1-5.237 5.236z"></path></g><!----></svg>